<?xml version="1.0" encoding="UTF-8"?>
<svg width="160" height="40" viewBox="0 0 160 40" fill="none" xmlns="http://www.w3.org/2000/svg">
  <!-- Main Shield Shape -->
  <path d="M20 2C18.023 2 16.25 2.23 14.688 2.664C13.125 3.086 11.781 3.734 10.664 4.586C9.547 5.438 8.656 6.477 8 7.68C7.344 6.477 6.453 5.438 5.336 4.586C4.219 3.734 2.875 3.086 1.312 2.664C-0.25 2.23 -2.023 2 -4 2V18.781C-4 20.77 -3.672 22.641 -3.023 24.375C-2.367 26.109 -1.414 27.672 -0.172 29.047C1.07 30.422 2.562 31.547 4.297 32.422C6.031 33.297 7.969 33.852 10.102 34.078L14 36L17.898 34.07C20.031 33.84 21.969 33.281 23.703 32.398C25.438 31.523 26.93 30.398 28.172 29.023C29.414 27.648 30.367 26.086 31.023 24.352C31.68 22.617 32.008 20.758 32.008 18.781V2C30.03 2 28.258 2.23 26.695 2.664C25.133 3.086 23.789 3.734 22.672 4.586C21.555 5.438 20.663 6.477 20.008 7.68L20 2Z" fill="#0D6EFD" fill-opacity="0.2"/>
  <path d="M20 2C18.023 2 16.25 2.23 14.688 2.664C13.125 3.086 11.781 3.734 10.664 4.586C9.547 5.438 8.656 6.477 8 7.68C7.344 6.477 6.453 5.438 5.336 4.586C4.219 3.734 2.875 3.086 1.312 2.664C-0.25 2.23 -2.023 2 -4 2V18.781C-4 20.77 -3.672 22.641 -3.023 24.375C-2.367 26.109 -1.414 27.672 -0.172 29.047C1.07 30.422 2.562 31.547 4.297 32.422C6.031 33.297 7.969 33.852 10.102 34.078L14 36L17.898 34.07C20.031 33.84 21.969 33.281 23.703 32.398C25.438 31.523 26.93 30.398 28.172 29.023C29.414 27.648 30.367 26.086 31.023 24.352C31.68 22.617 32.008 20.758 32.008 18.781V2C30.03 2 28.258 2.23 26.695 2.664C25.133 3.086 23.789 3.734 22.672 4.586C21.555 5.438 20.663 6.477 20.008 7.68L20 2Z" stroke="#0D6EFD" stroke-width="1.5"/>

  <!-- Dollar Sign -->
  <path d="M14 12V14H11V16H14V18H11V20H14V24H17V20H20V18H17V16H20V14H17V12H14Z" fill="#0D6EFD"/>
  
  <!-- Text for logo -->
  <text x="40" y="15" font-family="Inter, sans-serif" font-size="12" font-weight="600" fill="#F8F9FA">LEVY</text>
  <text x="40" y="30" font-family="Inter, sans-serif" font-size="14" font-weight="700" fill="#0D6EFD">CALC</text>
  
  <!-- Grid Lines Representing Assessment Grid -->
  <path d="M3 26H25" stroke="#0D6EFD" stroke-width="0.5" stroke-dasharray="2 2"/>
  <path d="M3 20H25" stroke="#0D6EFD" stroke-width="0.5" stroke-dasharray="2 2"/>
  <path d="M3 14H7" stroke="#0D6EFD" stroke-width="0.5" stroke-dasharray="2 2"/>
  <path d="M21 14H25" stroke="#0D6EFD" stroke-width="0.5" stroke-dasharray="2 2"/>
  <path d="M8 7V33" stroke="#0D6EFD" stroke-width="0.5" stroke-dasharray="2 2"/>
  <path d="M20 7V33" stroke="#0D6EFD" stroke-width="0.5" stroke-dasharray="2 2"/>
</svg>